<?xml version="1.0" encoding="UTF-8" standalone="no"?>
<svg
   xmlns:dc="http://purl.org/dc/elements/1.1/"
   xmlns:cc="http://creativecommons.org/ns#"
   xmlns:rdf="http://www.w3.org/1999/02/22-rdf-syntax-ns#"
   xmlns:svg="http://www.w3.org/2000/svg"
   xmlns="http://www.w3.org/2000/svg"
   xmlns:sodipodi="http://sodipodi.sourceforge.net/DTD/sodipodi-0.dtd"
   xmlns:inkscape="http://www.inkscape.org/namespaces/inkscape"
   inkscape:version="1.0beta2 (2b71d25, 2019-12-03)"
   sodipodi:docname="Large00.svg"
   viewBox="0 0 442.85599 156.81705"
   height="156.81705"
   width="442.85599"
   xml:space="preserve"
   id="svg10"
   version="1.1"><metadata
     id="metadata16"><rdf:RDF><cc:Work
         rdf:about=""><dc:format>image/svg+xml</dc:format><dc:type
           rdf:resource="http://purl.org/dc/dcmitype/StillImage" /><dc:title /></cc:Work></rdf:RDF></metadata><defs
     id="defs14"><clipPath
       id="clipPath266"
       clipPathUnits="userSpaceOnUse"><path
         inkscape:connector-curvature="0"
         id="path264"
         d="M 63.043,580.989 H 404.958 V 235.106 H 63.043 Z" /></clipPath></defs><sodipodi:namedview
     inkscape:current-layer="g18"
     inkscape:window-maximized="0"
     inkscape:window-y="23"
     inkscape:window-x="0"
     inkscape:cy="88.624348"
     inkscape:cx="221.42799"
     inkscape:zoom="3.9154941"
     fit-margin-bottom="0"
     fit-margin-right="0"
     fit-margin-left="0"
     fit-margin-top="0"
     showgrid="false"
     id="namedview12"
     inkscape:window-height="1194"
     inkscape:window-width="1933"
     inkscape:pageshadow="2"
     inkscape:pageopacity="0"
     guidetolerance="10"
     gridtolerance="10"
     objecttolerance="10"
     borderopacity="1"
     inkscape:document-rotation="0"
     bordercolor="#666666"
     pagecolor="#ffffff" /><g
     transform="matrix(1.3333333,0,0,-1.3333333,-92.059998,749.7557)"
     inkscape:label="Large2000PubsAHEdits"
     inkscape:groupmode="layer"
     id="g18"><text
       id="text38"
       style="font-variant:normal;font-weight:normal;font-size:10.959px;font-family:AdvP4C4E74;-inkscape-font-specification:AdvP4C4E74;writing-mode:lr-tb;fill:#000000;fill-opacity:1;fill-rule:nonzero;stroke:none"
       transform="matrix(1,0,0,-1,132.49106,159.8173)"><tspan
         id="tspan36"
         y="0"
         x="0" /></text><text
       id="text90"
       style="font-variant:normal;font-weight:normal;font-size:10.959px;font-family:AdvP4C4E74;-inkscape-font-specification:AdvP4C4E74;writing-mode:lr-tb;fill:#000000;fill-opacity:1;fill-rule:nonzero;stroke:none"
       transform="matrix(1,0,0,-1,91.559,114.2929)"><tspan
         id="tspan88"
         y="0"
         x="0"></tspan></text><text
       id="text102"
       style="font-variant:normal;font-weight:normal;font-size:10.959px;font-family:AdvP4C4E74;-inkscape-font-specification:AdvP4C4E74;writing-mode:lr-tb;fill:#000000;fill-opacity:1;fill-rule:nonzero;stroke:none"
       transform="matrix(1,0,0,-1,111.3449,114.2929)"><tspan
         id="tspan100"
         y="0"
         x="0"></tspan></text><text
       id="text114"
       style="font-variant:normal;font-weight:normal;font-size:10.959px;font-family:AdvP4C4E74;-inkscape-font-specification:AdvP4C4E74;writing-mode:lr-tb;fill:#000000;fill-opacity:1;fill-rule:nonzero;stroke:none"
       transform="matrix(1,0,0,-1,127.5023,114.2929)"><tspan
         id="tspan112"
         y="0"
         x="0" /></text><text
       id="text130"
       style="font-variant:normal;font-weight:normal;font-size:10.959px;font-family:AdvP4C4E74;-inkscape-font-specification:AdvP4C4E74;writing-mode:lr-tb;fill:#000000;fill-opacity:1;fill-rule:nonzero;stroke:none"
       transform="matrix(1,0,0,-1,146.8913,114.2929)"><tspan
         id="tspan128"
         sodipodi:role="line"
         y="0"
         x="0 6.6334829"></tspan></text><text
       id="text194"
       style="font-variant:normal;font-weight:normal;font-size:10.959px;font-family:AdvP4C4E74;-inkscape-font-specification:AdvP4C4E74;writing-mode:lr-tb;fill:#000000;fill-opacity:1;fill-rule:nonzero;stroke:none"
       transform="matrix(1,0,0,-1,94.6771,85.2661)"><tspan
         id="tspan192"
         y="0"
         x="0"></tspan></text><path
       sodipodi:nodetypes="cccccccc"
       inkscape:connector-curvature="0"
       id="path210"
       style="fill:none;stroke:#000000;stroke-width:0.81;stroke-linecap:square;stroke-linejoin:miter;stroke-miterlimit:2.613;stroke-dasharray:none;stroke-opacity:1"
       d="M 400.782,506.285 H 69.45 m 147.198,-49.046 v 103.934 m 99.673,-7.181 c -54.583,0 -98.882,-23.001 -98.882,-51.297 m -0.305,5.355 c 0,-28.296 44.3,-51.237 98.883,-51.237" /><path
       inkscape:connector-curvature="0"
       id="path212"
       style="fill:none;stroke:#000000;stroke-width:0.81;stroke-linecap:butt;stroke-linejoin:miter;stroke-miterlimit:2.613;stroke-dasharray:5.673, 4.052;stroke-dashoffset:0;stroke-opacity:1"
       d="m 327.092,505.616 c 0,26.713 -5.173,48.376 -11.562,48.376 -6.328,0 -11.501,-21.663 -11.501,-48.376 0,-26.714 5.173,-48.377 11.501,-48.377 6.389,0 11.562,21.663 11.562,48.377 z" /><path
       inkscape:connector-curvature="0"
       id="path214"
       style="fill:none;stroke:#000000;stroke-width:0.81;stroke-linecap:butt;stroke-linejoin:miter;stroke-miterlimit:2.613;stroke-dasharray:none;stroke-opacity:1"
       d="m 267.397,545.838 c -5.416,0 -9.797,-18.437 -9.797,-41.135 0,-22.697 4.381,-41.135 9.797,-41.135 5.416,0 9.797,18.438 9.797,41.135 0,22.698 -4.381,41.135 -9.797,41.135 z" /><path
       sodipodi:nodetypes="cc"
       inkscape:connector-curvature="0"
       id="path216"
       style="fill:none;stroke:#000000;stroke-width:0.81;stroke-linecap:square;stroke-linejoin:miter;stroke-miterlimit:2.613;stroke-dasharray:none;stroke-opacity:1"
       d="M 243.361,519.307 182.754,491.194" /><path
       inkscape:connector-curvature="0"
       id="path218"
       style="fill:#000000;fill-opacity:1;fill-rule:evenodd;stroke:#000000;stroke-width:0.81;stroke-linecap:butt;stroke-linejoin:miter;stroke-miterlimit:2.613;stroke-dasharray:none;stroke-opacity:1"
       d="m 251.759,533.729 2.92,-9.006 2.252,9.128 -2.617,-0.061 z" /><path
       inkscape:connector-curvature="0"
       id="path220"
       style="fill:none;stroke:#000000;stroke-width:0.81;stroke-linecap:square;stroke-linejoin:miter;stroke-miterlimit:2.613;stroke-dasharray:none;stroke-opacity:1"
       d="m 254.314,534.216 c -0.304,8.702 2.86,16.856 6.694,22.089 5.355,7.363 12.535,7.484 17.89,0.304 M 148.799,501.296 c 0,17.95 -4.381,32.433 -9.736,32.433 -5.233,0.061 -9.553,-13.874 -9.675,-31.338 m 0,0.06 c 0.122,-13.995 3.59,-25.131 7.789,-25.131 4.259,0 7.789,11.683 7.789,26.044 m 0.06,-1.46 c 0,11.501 -2.799,20.811 -6.267,20.811 -3.347,0 -6.085,-8.884 -6.207,-20.081" /><path
       inkscape:connector-curvature="0"
       id="path222"
       style="fill:#000000;fill-opacity:1;fill-rule:evenodd;stroke:#000000;stroke-width:0.81;stroke-linecap:butt;stroke-linejoin:miter;stroke-miterlimit:2.613;stroke-dasharray:none;stroke-opacity:1"
       d="m 142.897,493.507 -1.461,9.371 -3.712,-8.702 2.617,-0.365 z" /><path
       inkscape:connector-curvature="0"
       id="path224"
       style="fill:none;stroke:#000000;stroke-width:0.81;stroke-linecap:square;stroke-linejoin:miter;stroke-miterlimit:2.613;stroke-dasharray:none;stroke-opacity:1"
       d="m 140.28,493.446 c -0.304,-2.617 -1.886,-4.138 -3.103,-4.199 -2.434,-0.183 -4.443,6.268 -4.503,14.422" /><path
       inkscape:connector-curvature="0"
       id="path226"
       style="fill:#000000;fill-opacity:1;fill-rule:evenodd;stroke:#000000;stroke-width:0.81;stroke-linecap:butt;stroke-linejoin:miter;stroke-miterlimit:2.613;stroke-dasharray:none;stroke-opacity:1"
       d="m 259.122,515.169 2.129,-9.249 3.104,8.945 -2.617,0.122 z" /><path
       inkscape:connector-curvature="0"
       id="path228"
       style="fill:none;stroke:#000000;stroke-width:0.81;stroke-linecap:square;stroke-linejoin:miter;stroke-miterlimit:2.613;stroke-dasharray:none;stroke-opacity:1"
       d="m 261.799,515.413 c 0.487,8.823 3.347,14.969 6.085,15.152 3.773,0.243 6.815,-10.893 6.998,-25.071 m -11.014,0.791 c 0,-11.501 2.495,-20.811 5.476,-20.811 2.921,0 5.355,8.824 5.477,20.02 m -2.191,0.183 c -0.121,8.945 -2.069,16.003 -4.381,16.003 -2.434,0 -4.381,-7.362 -4.381,-16.551 m 2.373,1.765 c 0,-6.572 1.4,-11.927 3.103,-11.927 1.765,0 3.165,5.051 3.226,11.562" /><path
       inkscape:connector-curvature="0"
       id="path230"
       style="fill:#000000;fill-opacity:1;fill-rule:evenodd;stroke:none"
       d="m 395.975,499.835 c -0.122,0.548 -0.243,0.73 -0.365,1.034 -0.365,0.609 -0.852,1.035 -1.521,1.035 -0.731,0 -1.339,-0.365 -1.765,-0.913 -0.426,-0.548 -0.548,-0.973 -0.548,-2.008 0,-1.521 0.913,-2.556 2.13,-2.556 0.548,0 1.217,0.183 1.521,0.487 0.244,0.244 0.365,0.365 0.67,0.974 0.365,-0.974 0.669,-1.461 1.034,-1.461 0.487,0 0.791,0.548 0.791,1.4 0,0.061 0,0.122 0,0.243 h -0.243 c -0.061,-0.547 -0.183,-0.912 -0.548,-0.912 -0.304,0 -0.609,0.426 -0.73,1.095 l -0.061,0.122 1.156,3.346 h -0.913 z m -0.852,-2.251 c -0.244,-0.487 -0.669,-0.792 -1.034,-0.792 -0.792,0 -1.157,0.792 -1.157,2.252 0,1.46 0.426,2.434 1.096,2.434 0.669,0 1.217,-0.609 1.46,-1.46 l 0.122,-0.731 c 0,-0.182 0,-0.243 0,-0.243 0,-0.122 0,-0.365 -0.122,-0.609 l -0.365,-0.851" /><path
       inkscape:connector-curvature="0"
       id="path292"
       style="fill:#000000;fill-opacity:1;fill-rule:evenodd;stroke:none"
       d="m 209.954,448.173 c -0.061,0.547 -0.122,0.73 -0.304,1.034 -0.365,0.669 -0.852,0.974 -1.582,0.974 -0.609,0 -1.217,-0.305 -1.643,-0.852 -0.487,-0.548 -0.609,-0.974 -0.609,-2.069 0,-1.461 0.852,-2.556 2.191,-2.556 0.487,0 1.156,0.304 1.46,0.548 0.305,0.243 0.365,0.304 0.67,0.973 0.365,-1.034 0.669,-1.46 1.034,-1.46 0.487,0 0.73,0.487 0.73,1.399 0,0.061 0,0.122 0,0.244 h -0.121 c -0.061,-0.548 -0.305,-0.913 -0.609,-0.913 -0.304,0 -0.608,0.487 -0.791,1.035 v 0.182 l 1.217,3.286 h -0.974 z m -0.791,-2.191 c -0.183,-0.487 -0.669,-0.913 -1.095,-0.913 -0.67,0 -1.096,0.852 -1.096,2.312 0,1.461 0.426,2.374 1.035,2.374 0.791,0 1.338,-0.548 1.46,-1.4 l 0.122,-0.791 c 0.061,-0.122 0.061,-0.183 0.061,-0.183 0,-0.121 -0.061,-0.365 -0.183,-0.669 l -0.304,-0.73" /><path
       inkscape:connector-curvature="0"
       id="path294"
       style="fill:#000000;fill-opacity:1;fill-rule:evenodd;stroke:none"
       d="m 214.761,448.416 h 5.537 v 0.608 h -5.537 z m 0,-2.008 h 5.537 v 0.548 h -5.537 z" /><path
       inkscape:connector-curvature="0"
       id="path296"
       style="fill:#000000;fill-opacity:1;fill-rule:evenodd;stroke:none"
       d="m 225.593,452.006 c -1.4,-0.061 -2.312,-1.521 -2.312,-3.59 0,-2.191 0.973,-3.651 2.373,-3.651 1.46,0 2.433,1.46 2.433,3.651 0,2.191 -0.973,3.59 -2.433,3.59 z m 0.061,-0.243 c 0,0 0,0 0.06,0 0.852,0 1.339,-1.217 1.339,-3.347 0,-2.252 -0.487,-3.408 -1.339,-3.408 -0.912,0 -1.399,1.156 -1.399,3.347 0,2.191 0.426,3.347 1.339,3.408" /><path
       inkscape:connector-curvature="0"
       id="path366"
       style="fill:none;stroke:#000000;stroke-width:0.45;stroke-linecap:square;stroke-linejoin:miter;stroke-miterlimit:2.613;stroke-dasharray:none;stroke-opacity:1"
       d="m 323.684,537.867 -7.545,-30.791" /><path
       inkscape:connector-curvature="0"
       id="path368"
       style="fill:#000000;fill-opacity:1;fill-rule:evenodd;stroke:none"
       d="m 316.808,529.226 -0.122,-0.061 -0.182,-0.061 -0.183,-0.061 -0.243,-0.121 -0.304,-0.061 -0.244,-0.061 -0.061,-0.061 v -0.182 c 0.122,0.06 0.183,0.06 0.305,0.06 0.243,0 0.304,-0.121 0.304,-0.365 v -2.555 c 0,-0.244 -0.122,-0.426 -0.548,-0.487 h -0.061 v -0.122 h 2.13 v 0.122 c -0.547,0 -0.73,0.182 -0.73,0.608 v 2.13 c 0,0.122 0.122,0.304 0.183,0.487 0.121,0.122 0.365,0.243 0.425,0.243 l 0.061,-0.061 0.365,-0.243 c 0.061,0 0.061,0 0.122,0 0.243,0 0.426,0.061 0.426,0.365 0,0.304 -0.183,0.487 -0.487,0.487 -0.426,0 -0.669,-0.183 -1.034,-0.73 l -0.061,-0.061 v 0.791 h -0.061" /><path
       inkscape:connector-curvature="0"
       id="path370"
       style="fill:#000000;fill-opacity:1;fill-rule:evenodd;stroke:none"
       d="m 331.412,516.995 v -1.582 c -0.426,0 -0.669,-0.061 -0.913,-0.304 -0.547,-0.365 -0.973,-1.218 -0.973,-2.069 0,-0.67 0.304,-1.339 0.791,-1.765 0.182,-0.182 0.547,-0.304 1.034,-0.426 h 0.122 v -1.765 l 0.365,-0.121 v 1.886 h 0.061 c 0.487,0.122 0.791,0.183 0.974,0.304 0.486,0.426 0.851,1.157 0.851,1.948 0,0.851 -0.365,1.521 -0.851,1.947 -0.305,0.182 -0.548,0.304 -1.035,0.365 l -0.061,1.46 z m 0,-1.886 0.061,-3.956 c -0.609,0.122 -1.095,1.096 -1.095,2.191 0,0.426 0.121,0.852 0.243,1.156 0.183,0.365 0.365,0.426 0.791,0.609 z m 0.426,0 c 0.244,-0.183 0.365,-0.183 0.548,-0.365 0.304,-0.426 0.487,-1.096 0.487,-1.887 0,-0.426 0,-0.73 -0.183,-1.034 -0.243,-0.365 -0.426,-0.548 -0.852,-0.67 v 3.956" /><path
       inkscape:connector-curvature="0"
       id="path372"
       style="fill:none;stroke:#000000;stroke-width:0.45;stroke-linecap:square;stroke-linejoin:miter;stroke-miterlimit:2.613;stroke-dasharray:none;stroke-opacity:1"
       d="m 321.798,507.32 c 0,8.701 -0.487,15.76 -0.974,15.76" /><path
       inkscape:connector-curvature="0"
       id="path374"
       style="fill:#000000;fill-opacity:1;fill-rule:evenodd;stroke:none"
       d="m 132.734,448.173 c -0.121,0.547 -0.182,0.73 -0.365,1.034 -0.304,0.669 -0.851,0.974 -1.521,0.974 -0.669,0 -1.278,-0.305 -1.704,-0.852 -0.426,-0.548 -0.547,-0.974 -0.547,-2.069 0,-1.461 0.852,-2.556 2.129,-2.556 0.487,0 1.157,0.304 1.522,0.548 0.243,0.243 0.365,0.304 0.669,0.973 0.304,-1.034 0.669,-1.46 1.034,-1.46 0.487,0 0.731,0.487 0.731,1.399 0,0.061 0,0.122 0,0.244 h -0.183 c -0.061,-0.548 -0.304,-0.913 -0.608,-0.913 -0.244,0 -0.609,0.487 -0.73,1.035 v 0.182 l 1.155,3.286 h -0.912 z m -0.851,-2.191 c -0.183,-0.487 -0.609,-0.913 -1.035,-0.913 -0.73,0 -1.156,0.852 -1.156,2.312 0,1.461 0.426,2.374 1.156,2.374 0.67,0 1.217,-0.548 1.4,-1.4 l 0.121,-0.791 c 0.061,-0.122 0.061,-0.183 0.061,-0.183 0,-0.121 -0.061,-0.365 -0.182,-0.669 l -0.365,-0.73" /><path
       inkscape:connector-curvature="0"
       id="path376"
       style="fill:#000000;fill-opacity:1;fill-rule:evenodd;stroke:none"
       d="m 142.897,450.363 -5.234,-2.373 v -0.609 l 5.234,-2.433 v 0.608 l -4.503,2.13 4.503,2.069 v 0.608" /><path
       inkscape:connector-curvature="0"
       id="path378"
       style="fill:#000000;fill-opacity:1;fill-rule:evenodd;stroke:none"
       d="m 148.312,452.006 c -1.338,-0.061 -2.251,-1.521 -2.251,-3.59 0,-2.191 0.973,-3.651 2.373,-3.651 1.46,0 2.373,1.46 2.373,3.651 0,2.191 -0.973,3.59 -2.373,3.59 -0.061,0 -0.061,0 -0.122,0 z m 0.061,-0.243 c 0.061,0 0.061,0 0.061,0 0.852,0 1.339,-1.217 1.339,-3.347 0,-2.252 -0.426,-3.408 -1.339,-3.408 -0.913,0 -1.339,1.156 -1.339,3.347 0,2.191 0.426,3.347 1.278,3.408" /><path
       inkscape:connector-curvature="0"
       id="path380"
       style="fill:#000000;fill-opacity:1;fill-rule:evenodd;stroke:none"
       d="m 287.174,448.173 c -0.122,0.547 -0.122,0.73 -0.304,1.034 -0.305,0.669 -0.853,0.974 -1.522,0.974 -0.669,0 -1.278,-0.305 -1.704,-0.852 -0.425,-0.548 -0.547,-0.974 -0.547,-2.069 0,-1.461 0.791,-2.556 2.069,-2.556 0.486,0 1.217,0.304 1.521,0.548 0.304,0.243 0.365,0.304 0.669,0.973 0.365,-1.034 0.669,-1.46 1.096,-1.46 0.426,0 0.669,0.487 0.73,1.399 0,0.061 0,0.122 0,0.244 h -0.183 c -0.061,-0.548 -0.304,-0.913 -0.608,-0.913 -0.366,0 -0.609,0.487 -0.791,1.035 v 0.182 l 1.217,3.286 h -0.913 z m -0.791,-2.191 c -0.244,-0.487 -0.67,-0.913 -1.035,-0.913 -0.73,0 -1.156,0.852 -1.156,2.312 0,1.461 0.426,2.374 1.095,2.374 0.73,0 1.278,-0.548 1.4,-1.4 l 0.183,-0.791 c 0,-0.122 0.06,-0.183 0.06,-0.183 0,-0.121 -0.121,-0.365 -0.243,-0.669 l -0.304,-0.73" /><path
       inkscape:connector-curvature="0"
       id="path382"
       style="fill:#000000;fill-opacity:1;fill-rule:evenodd;stroke:none"
       d="m 292.163,450.363 v -0.608 l 4.564,-2.069 -4.564,-2.13 v -0.608 l 5.233,2.433 v 0.609 l -5.233,2.373" /><path
       inkscape:connector-curvature="0"
       id="path384"
       style="fill:#000000;fill-opacity:1;fill-rule:evenodd;stroke:none"
       d="m 302.812,452.006 c -1.338,-0.061 -2.251,-1.521 -2.251,-3.59 0,-2.191 0.973,-3.651 2.373,-3.651 1.46,0 2.373,1.46 2.373,3.651 0,2.191 -0.973,3.59 -2.373,3.59 -0.061,0 -0.061,0 -0.122,0 z m 0.061,-0.243 h 0.061 c 0.852,0 1.339,-1.217 1.339,-3.347 0,-2.252 -0.426,-3.408 -1.339,-3.408 -0.913,0 -1.4,1.156 -1.4,3.347 0,2.191 0.487,3.347 1.339,3.408" /></g></svg>
